<mxfile host="Electron" agent="Mozilla/5.0 (Windows NT 10.0; Win64; x64) AppleWebKit/537.36 (KHTML, like Gecko) draw.io/26.0.16 Chrome/132.0.6834.196 Electron/34.2.0 Safari/537.36" version="26.0.16">
  <diagram name="Page-1" id="-gUkO9v0VpvYhh8FtkJX">
    <mxGraphModel dx="1434" dy="836" grid="1" gridSize="10" guides="1" tooltips="1" connect="1" arrows="1" fold="1" page="1" pageScale="1" pageWidth="1169" pageHeight="827" math="0" shadow="0">
      <root>
        <mxCell id="0" />
        <mxCell id="1" parent="0" />
        <mxCell id="YEzh37ItMWN1QgV4G2L8-1" value="" style="rounded=0;whiteSpace=wrap;html=1;strokeWidth=2;fillColor=#ffe6cc;strokeColor=#000000;" vertex="1" parent="1">
          <mxGeometry x="245" y="160" width="520" height="500" as="geometry" />
        </mxCell>
        <mxCell id="YEzh37ItMWN1QgV4G2L8-2" value="&lt;font style=&quot;font-size: 16px;&quot;&gt;&lt;b style=&quot;&quot;&gt;CPU&lt;/b&gt;&lt;/font&gt;" style="rounded=0;whiteSpace=wrap;html=1;strokeWidth=2;fillColor=#fff2cc;strokeColor=#000000;" vertex="1" parent="1">
          <mxGeometry x="265" y="590" width="80" height="60" as="geometry" />
        </mxCell>
        <mxCell id="YEzh37ItMWN1QgV4G2L8-3" value="&lt;font style=&quot;font-size: 16px;&quot;&gt;&lt;b style=&quot;&quot;&gt;GPU&lt;/b&gt;&lt;/font&gt;" style="rounded=0;whiteSpace=wrap;html=1;strokeWidth=2;fillColor=#fff2cc;strokeColor=#000000;" vertex="1" parent="1">
          <mxGeometry x="365" y="590" width="80" height="60" as="geometry" />
        </mxCell>
        <mxCell id="YEzh37ItMWN1QgV4G2L8-4" value="&lt;font style=&quot;font-size: 16px;&quot;&gt;&lt;b style=&quot;&quot;&gt;RAM&lt;/b&gt;&lt;/font&gt;" style="rounded=0;whiteSpace=wrap;html=1;strokeWidth=2;fillColor=#fff2cc;strokeColor=#000000;" vertex="1" parent="1">
          <mxGeometry x="465" y="590" width="80" height="60" as="geometry" />
        </mxCell>
        <mxCell id="YEzh37ItMWN1QgV4G2L8-5" value="&lt;font style=&quot;font-size: 16px;&quot;&gt;&lt;b style=&quot;&quot;&gt;HDD&lt;/b&gt;&lt;/font&gt;" style="rounded=0;whiteSpace=wrap;html=1;strokeWidth=2;fillColor=#fff2cc;strokeColor=#000000;" vertex="1" parent="1">
          <mxGeometry x="565" y="590" width="80" height="60" as="geometry" />
        </mxCell>
        <mxCell id="YEzh37ItMWN1QgV4G2L8-6" value="&lt;font style=&quot;font-size: 16px;&quot;&gt;&lt;b style=&quot;&quot;&gt;Windows&lt;/b&gt;&lt;/font&gt;" style="rounded=0;whiteSpace=wrap;html=1;strokeWidth=2;fillColor=#dae8fc;strokeColor=#000000;" vertex="1" parent="1">
          <mxGeometry x="265" y="480" width="480" height="80" as="geometry" />
        </mxCell>
        <mxCell id="YEzh37ItMWN1QgV4G2L8-7" value="" style="rounded=0;whiteSpace=wrap;html=1;strokeWidth=2;fillColor=#B9E0A5;strokeColor=#000000;" vertex="1" parent="1">
          <mxGeometry x="265" y="180" width="480" height="280" as="geometry" />
        </mxCell>
        <mxCell id="YEzh37ItMWN1QgV4G2L8-8" value="&lt;font style=&quot;font-size: 16px;&quot;&gt;&lt;b style=&quot;&quot;&gt;Network&lt;/b&gt;&lt;/font&gt;&lt;div&gt;&lt;font style=&quot;font-size: 16px;&quot;&gt;&lt;b style=&quot;&quot;&gt;Card&lt;/b&gt;&lt;/font&gt;&lt;/div&gt;" style="rounded=0;whiteSpace=wrap;html=1;strokeColor=#FF0000;strokeWidth=3;fillColor=#fff2cc;" vertex="1" parent="1">
          <mxGeometry x="665" y="590" width="80" height="60" as="geometry" />
        </mxCell>
        <mxCell id="YEzh37ItMWN1QgV4G2L8-9" value="&lt;font style=&quot;font-size: 15px;&quot;&gt;&lt;b&gt;WinPcap&lt;/b&gt;&lt;/font&gt;&lt;div&gt;&lt;font style=&quot;font-size: 15px;&quot;&gt;&lt;b&gt;Library&lt;/b&gt;&lt;/font&gt;&lt;/div&gt;" style="rounded=0;whiteSpace=wrap;html=1;strokeColor=#FF0000;strokeWidth=3;fillColor=#e1d5e7;" vertex="1" parent="1">
          <mxGeometry x="615" y="490" width="120" height="60" as="geometry" />
        </mxCell>
        <mxCell id="YEzh37ItMWN1QgV4G2L8-10" value="" style="endArrow=classic;html=1;rounded=0;exitX=0.5;exitY=0;exitDx=0;exitDy=0;entryX=0.543;entryY=0.952;entryDx=0;entryDy=0;entryPerimeter=0;strokeColor=#FF0000;strokeWidth=2;" edge="1" parent="1" source="YEzh37ItMWN1QgV4G2L8-8" target="YEzh37ItMWN1QgV4G2L8-9">
          <mxGeometry width="50" height="50" relative="1" as="geometry">
            <mxPoint x="475" y="430" as="sourcePoint" />
            <mxPoint x="525" y="380" as="targetPoint" />
            <Array as="points">
              <mxPoint x="705" y="580" />
              <mxPoint x="680" y="580" />
            </Array>
          </mxGeometry>
        </mxCell>
        <mxCell id="YEzh37ItMWN1QgV4G2L8-11" value="&lt;font style=&quot;font-size: 16px;&quot;&gt;&lt;b style=&quot;&quot;&gt;Capture&lt;/b&gt;&lt;/font&gt;&lt;div&gt;&lt;font style=&quot;font-size: 16px;&quot;&gt;&lt;b style=&quot;&quot;&gt;Core&lt;/b&gt;&lt;/font&gt;&lt;/div&gt;" style="rounded=0;whiteSpace=wrap;html=1;strokeColor=#FF0000;strokeWidth=3;fillColor=#f5f5f5;fontColor=#333333;" vertex="1" parent="1">
          <mxGeometry x="615" y="380" width="120" height="60" as="geometry" />
        </mxCell>
        <mxCell id="YEzh37ItMWN1QgV4G2L8-12" value="" style="endArrow=classic;html=1;rounded=0;exitX=0.5;exitY=0;exitDx=0;exitDy=0;entryX=0.5;entryY=1;entryDx=0;entryDy=0;strokeColor=#FF0000;strokeWidth=2;" edge="1" parent="1" source="YEzh37ItMWN1QgV4G2L8-9" target="YEzh37ItMWN1QgV4G2L8-11">
          <mxGeometry width="50" height="50" relative="1" as="geometry">
            <mxPoint x="495" y="470" as="sourcePoint" />
            <mxPoint x="545" y="420" as="targetPoint" />
          </mxGeometry>
        </mxCell>
        <mxCell id="YEzh37ItMWN1QgV4G2L8-13" value="&lt;font style=&quot;font-size: 16px;&quot;&gt;&lt;b style=&quot;&quot;&gt;Wire&lt;/b&gt;&lt;/font&gt;&lt;div&gt;&lt;font style=&quot;font-size: 16px;&quot;&gt;&lt;b style=&quot;&quot;&gt;Tap&lt;/b&gt;&lt;/font&gt;&lt;/div&gt;" style="rounded=0;whiteSpace=wrap;html=1;strokeColor=#FF0000;strokeWidth=3;fillColor=#f5f5f5;fontColor=#333333;" vertex="1" parent="1">
          <mxGeometry x="275" y="380" width="120" height="60" as="geometry" />
        </mxCell>
        <mxCell id="YEzh37ItMWN1QgV4G2L8-14" value="" style="endArrow=classic;html=1;rounded=0;exitX=0;exitY=0.5;exitDx=0;exitDy=0;strokeColor=#FF0000;entryX=1;entryY=0.5;entryDx=0;entryDy=0;strokeWidth=2;" edge="1" parent="1" source="YEzh37ItMWN1QgV4G2L8-11" target="YEzh37ItMWN1QgV4G2L8-13">
          <mxGeometry width="50" height="50" relative="1" as="geometry">
            <mxPoint x="495" y="470" as="sourcePoint" />
            <mxPoint x="575" y="420" as="targetPoint" />
          </mxGeometry>
        </mxCell>
        <mxCell id="YEzh37ItMWN1QgV4G2L8-15" value="&lt;font style=&quot;font-size: 16px;&quot;&gt;&lt;b style=&quot;&quot;&gt;Disselectors&lt;/b&gt;&lt;/font&gt;" style="rounded=0;whiteSpace=wrap;html=1;strokeColor=#FF0000;strokeWidth=3;fillColor=#f5f5f5;fontColor=#333333;" vertex="1" parent="1">
          <mxGeometry x="275" y="290" width="120" height="60" as="geometry" />
        </mxCell>
        <mxCell id="YEzh37ItMWN1QgV4G2L8-16" value="&lt;font style=&quot;font-size: 16px;&quot;&gt;&lt;b style=&quot;&quot;&gt;Protocol&lt;/b&gt;&lt;/font&gt;&lt;div&gt;&lt;font style=&quot;font-size: 16px;&quot;&gt;&lt;b style=&quot;&quot;&gt;Interpreter&lt;/b&gt;&lt;/font&gt;&lt;/div&gt;" style="rounded=0;whiteSpace=wrap;html=1;strokeColor=#FF0000;strokeWidth=3;fillColor=#f5f5f5;fontColor=#333333;" vertex="1" parent="1">
          <mxGeometry x="615" y="290" width="120" height="60" as="geometry" />
        </mxCell>
        <mxCell id="YEzh37ItMWN1QgV4G2L8-17" value="" style="endArrow=classic;html=1;rounded=0;exitX=1;exitY=0.5;exitDx=0;exitDy=0;entryX=0;entryY=0.5;entryDx=0;entryDy=0;strokeColor=#FF0000;strokeWidth=2;" edge="1" parent="1" source="YEzh37ItMWN1QgV4G2L8-15" target="YEzh37ItMWN1QgV4G2L8-16">
          <mxGeometry width="50" height="50" relative="1" as="geometry">
            <mxPoint x="465" y="420" as="sourcePoint" />
            <mxPoint x="515" y="370" as="targetPoint" />
          </mxGeometry>
        </mxCell>
        <mxCell id="YEzh37ItMWN1QgV4G2L8-18" value="" style="endArrow=classic;html=1;rounded=0;exitX=0.5;exitY=0;exitDx=0;exitDy=0;entryX=0.5;entryY=1;entryDx=0;entryDy=0;strokeColor=#FF0000;strokeWidth=2;" edge="1" parent="1" source="YEzh37ItMWN1QgV4G2L8-11" target="YEzh37ItMWN1QgV4G2L8-16">
          <mxGeometry width="50" height="50" relative="1" as="geometry">
            <mxPoint x="555" y="410" as="sourcePoint" />
            <mxPoint x="605" y="360" as="targetPoint" />
          </mxGeometry>
        </mxCell>
        <mxCell id="YEzh37ItMWN1QgV4G2L8-19" value="&lt;font style=&quot;font-size: 16px;&quot;&gt;&lt;b style=&quot;&quot;&gt;User Interface&lt;/b&gt;&lt;/font&gt;" style="rounded=0;whiteSpace=wrap;html=1;strokeColor=#FF0000;strokeWidth=3;fillColor=#f5f5f5;fontColor=#333333;" vertex="1" parent="1">
          <mxGeometry x="275" y="200" width="460" height="60" as="geometry" />
        </mxCell>
        <mxCell id="YEzh37ItMWN1QgV4G2L8-20" value="" style="endArrow=classic;html=1;rounded=0;exitX=0.5;exitY=0;exitDx=0;exitDy=0;entryX=0.87;entryY=1;entryDx=0;entryDy=0;strokeColor=#FF0000;entryPerimeter=0;strokeWidth=2;" edge="1" parent="1" source="YEzh37ItMWN1QgV4G2L8-16" target="YEzh37ItMWN1QgV4G2L8-19">
          <mxGeometry width="50" height="50" relative="1" as="geometry">
            <mxPoint x="674.9300000000001" y="312.5" as="sourcePoint" />
            <mxPoint x="674.9300000000001" y="295.5" as="targetPoint" />
          </mxGeometry>
        </mxCell>
        <mxCell id="YEzh37ItMWN1QgV4G2L8-21" value="" style="endArrow=none;dashed=1;html=1;dashPattern=1 3;strokeWidth=2;rounded=0;" edge="1" parent="1">
          <mxGeometry width="50" height="50" relative="1" as="geometry">
            <mxPoint x="165" y="470" as="sourcePoint" />
            <mxPoint x="845" y="470" as="targetPoint" />
          </mxGeometry>
        </mxCell>
        <mxCell id="YEzh37ItMWN1QgV4G2L8-22" value="" style="endArrow=none;dashed=1;html=1;dashPattern=1 3;strokeWidth=2;rounded=0;" edge="1" parent="1">
          <mxGeometry width="50" height="50" relative="1" as="geometry">
            <mxPoint x="165" y="576" as="sourcePoint" />
            <mxPoint x="845" y="576" as="targetPoint" />
          </mxGeometry>
        </mxCell>
        <mxCell id="YEzh37ItMWN1QgV4G2L8-23" value="&lt;font style=&quot;font-size: 18px;&quot;&gt;&lt;b style=&quot;&quot;&gt;hardwarová vrstva&lt;/b&gt;&lt;/font&gt;" style="text;html=1;align=left;verticalAlign=middle;whiteSpace=wrap;rounded=0;" vertex="1" parent="1">
          <mxGeometry x="805" y="600" width="200" height="40" as="geometry" />
        </mxCell>
        <mxCell id="YEzh37ItMWN1QgV4G2L8-24" value="&lt;font style=&quot;font-size: 18px;&quot;&gt;&lt;b style=&quot;&quot;&gt;vrstva operačního systému&lt;/b&gt;&lt;/font&gt;" style="text;html=1;align=left;verticalAlign=middle;whiteSpace=wrap;rounded=0;" vertex="1" parent="1">
          <mxGeometry x="805" y="500" width="245" height="40" as="geometry" />
        </mxCell>
        <mxCell id="YEzh37ItMWN1QgV4G2L8-25" value="&lt;font style=&quot;font-size: 18px;&quot;&gt;&lt;b style=&quot;&quot;&gt;aplikační vrstva&lt;/b&gt;&lt;/font&gt;" style="text;html=1;align=left;verticalAlign=middle;whiteSpace=wrap;rounded=0;" vertex="1" parent="1">
          <mxGeometry x="805" y="300" width="200" height="40" as="geometry" />
        </mxCell>
        <mxCell id="YEzh37ItMWN1QgV4G2L8-26" value="" style="endArrow=classic;startArrow=classic;html=1;rounded=0;exitX=0.5;exitY=0;exitDx=0;exitDy=0;entryX=0.708;entryY=1.001;entryDx=0;entryDy=0;entryPerimeter=0;" edge="1" parent="1" source="YEzh37ItMWN1QgV4G2L8-5" target="YEzh37ItMWN1QgV4G2L8-6">
          <mxGeometry width="50" height="50" relative="1" as="geometry">
            <mxPoint x="525" y="600" as="sourcePoint" />
            <mxPoint x="575" y="550" as="targetPoint" />
          </mxGeometry>
        </mxCell>
        <mxCell id="YEzh37ItMWN1QgV4G2L8-27" value="" style="endArrow=classic;startArrow=classic;html=1;rounded=0;exitX=0.5;exitY=0;exitDx=0;exitDy=0;entryX=0.708;entryY=1.001;entryDx=0;entryDy=0;entryPerimeter=0;" edge="1" parent="1">
          <mxGeometry width="50" height="50" relative="1" as="geometry">
            <mxPoint x="504.9000000000001" y="590" as="sourcePoint" />
            <mxPoint x="504.9000000000001" y="560" as="targetPoint" />
          </mxGeometry>
        </mxCell>
        <mxCell id="YEzh37ItMWN1QgV4G2L8-28" value="" style="endArrow=classic;startArrow=classic;html=1;rounded=0;exitX=0.5;exitY=0;exitDx=0;exitDy=0;entryX=0.708;entryY=1.001;entryDx=0;entryDy=0;entryPerimeter=0;" edge="1" parent="1">
          <mxGeometry width="50" height="50" relative="1" as="geometry">
            <mxPoint x="404.8600000000001" y="590" as="sourcePoint" />
            <mxPoint x="404.8600000000001" y="560" as="targetPoint" />
          </mxGeometry>
        </mxCell>
        <mxCell id="YEzh37ItMWN1QgV4G2L8-29" value="" style="endArrow=classic;startArrow=classic;html=1;rounded=0;exitX=0.5;exitY=0;exitDx=0;exitDy=0;entryX=0.708;entryY=1.001;entryDx=0;entryDy=0;entryPerimeter=0;" edge="1" parent="1">
          <mxGeometry width="50" height="50" relative="1" as="geometry">
            <mxPoint x="304.8600000000001" y="590" as="sourcePoint" />
            <mxPoint x="304.8600000000001" y="560" as="targetPoint" />
          </mxGeometry>
        </mxCell>
      </root>
    </mxGraphModel>
  </diagram>
</mxfile>
